<svg xmlns="http://www.w3.org/2000/svg" xmlns:xlink="http://www.w3.org/1999/xlink" width="500" zoomAndPan="magnify" viewBox="0 0 375 374.999991" height="500" preserveAspectRatio="xMidYMid meet" version="1.0"><defs><g/><clipPath id="40646da6ba"><path d="M 157.214844 132 L 178 132 L 178 162 L 157.214844 162 Z M 157.214844 132 " clip-rule="nonzero"/></clipPath><clipPath id="939a818d8e"><path d="M 157.214844 131 L 179 131 L 179 163 L 157.214844 163 Z M 157.214844 131 " clip-rule="nonzero"/></clipPath><clipPath id="24dfbf15b0"><path d="M 197 132 L 217.964844 132 L 217.964844 162 L 197 162 Z M 197 132 " clip-rule="nonzero"/></clipPath><clipPath id="ad6cbc137b"><path d="M 196 131 L 217.964844 131 L 217.964844 163 L 196 163 Z M 196 131 " clip-rule="nonzero"/></clipPath><clipPath id="e8dcde6709"><path d="M 177 123.375 L 198 123.375 L 198 170.625 L 177 170.625 Z M 177 123.375 " clip-rule="nonzero"/></clipPath></defs><rect x="-37.5" width="450" fill="#ffffff" y="-37.499999" height="449.999989" fill-opacity="1"/><rect x="-37.5" width="450" fill="#ffffff" y="-37.499999" height="449.999989" fill-opacity="1"/><rect x="-37.5" width="450" fill="#171810" y="-37.499999" height="449.999989" fill-opacity="1"/><g clip-path="url(#40646da6ba)"><path fill="#03fa6e" d="M 176.378906 161.898438 C 176.042969 161.898438 175.714844 161.785156 175.449219 161.574219 L 158.460938 148.183594 C 158.09375 147.894531 157.886719 147.464844 157.886719 147 C 157.886719 146.535156 158.09375 146.101562 158.460938 145.8125 L 175.449219 132.421875 C 175.714844 132.214844 176.042969 132.101562 176.378906 132.101562 C 176.84375 132.101562 177.277344 132.308594 177.5625 132.675781 C 177.808594 132.992188 177.921875 133.386719 177.875 133.785156 C 177.828125 134.183594 177.625 134.542969 177.3125 134.792969 L 161.828125 147 L 177.3125 159.203125 C 177.625 159.457031 177.828125 159.8125 177.875 160.210938 C 177.921875 160.613281 177.808594 161.003906 177.5625 161.324219 C 177.277344 161.6875 176.84375 161.898438 176.378906 161.898438 " fill-opacity="1" fill-rule="nonzero"/></g><g clip-path="url(#939a818d8e)"><path fill="#2a446b" d="M 176.378906 131.457031 C 175.902344 131.457031 175.433594 131.621094 175.054688 131.917969 L 158.0625 145.308594 C 157.542969 145.722656 157.246094 146.335938 157.246094 147 C 157.246094 147.660156 157.542969 148.277344 158.0625 148.6875 L 175.054688 162.082031 C 175.429688 162.375 175.902344 162.539062 176.378906 162.539062 C 177.042969 162.539062 177.660156 162.238281 178.066406 161.71875 C 178.421875 161.269531 178.578125 160.707031 178.511719 160.136719 C 178.445312 159.566406 178.160156 159.054688 177.707031 158.699219 L 162.863281 147 L 177.707031 135.296875 C 178.160156 134.941406 178.445312 134.429688 178.511719 133.863281 C 178.578125 133.292969 178.421875 132.730469 178.066406 132.277344 C 177.660156 131.753906 177.042969 131.457031 176.378906 131.457031 Z M 176.378906 132.742188 C 176.636719 132.742188 176.890625 132.855469 177.058594 133.070312 C 177.355469 133.449219 177.289062 133.992188 176.914062 134.289062 L 160.789062 147 L 176.914062 159.710938 C 177.289062 160.003906 177.355469 160.550781 177.058594 160.925781 C 176.890625 161.144531 176.636719 161.257812 176.378906 161.257812 C 176.191406 161.257812 176.007812 161.195312 175.847656 161.070312 L 158.855469 147.679688 C 158.648438 147.515625 158.527344 147.261719 158.527344 147 C 158.527344 146.730469 158.648438 146.484375 158.855469 146.320312 L 175.847656 132.925781 C 176.003906 132.800781 176.191406 132.742188 176.378906 132.742188 " fill-opacity="1" fill-rule="nonzero"/></g><g clip-path="url(#24dfbf15b0)"><path fill="#03fa6e" d="M 198.796875 161.898438 C 198.332031 161.898438 197.902344 161.6875 197.613281 161.324219 C 197.101562 160.671875 197.214844 159.71875 197.867188 159.203125 L 213.351562 147 L 197.867188 134.792969 C 197.214844 134.277344 197.101562 133.328125 197.613281 132.675781 C 197.902344 132.308594 198.332031 132.101562 198.796875 132.101562 C 199.132812 132.101562 199.464844 132.214844 199.726562 132.421875 L 216.71875 145.8125 C 217.082031 146.101562 217.289062 146.535156 217.289062 147 C 217.289062 147.464844 217.082031 147.894531 216.714844 148.183594 L 199.726562 161.574219 C 199.464844 161.785156 199.132812 161.898438 198.796875 161.898438 " fill-opacity="1" fill-rule="nonzero"/></g><g clip-path="url(#ad6cbc137b)"><path fill="#2a446b" d="M 198.796875 131.457031 C 198.136719 131.457031 197.519531 131.753906 197.109375 132.277344 C 196.378906 133.210938 196.539062 134.5625 197.46875 135.296875 L 212.316406 147 L 197.46875 158.703125 C 196.539062 159.433594 196.378906 160.789062 197.109375 161.71875 C 197.519531 162.238281 198.136719 162.539062 198.796875 162.539062 C 199.277344 162.539062 199.746094 162.375 200.121094 162.082031 L 217.113281 148.6875 C 217.632812 148.277344 217.929688 147.660156 217.929688 147 C 217.929688 146.335938 217.632812 145.722656 217.117188 145.308594 L 200.125 131.917969 C 199.75 131.621094 199.277344 131.457031 198.796875 131.457031 Z M 198.796875 132.742188 C 198.984375 132.742188 199.175781 132.800781 199.332031 132.925781 L 216.320312 146.320312 C 216.527344 146.484375 216.648438 146.730469 216.648438 147 C 216.648438 147.261719 216.527344 147.515625 216.320312 147.679688 L 199.332031 161.070312 C 199.175781 161.195312 198.984375 161.257812 198.796875 161.257812 C 198.539062 161.257812 198.289062 161.144531 198.117188 160.925781 C 197.824219 160.550781 197.886719 160.003906 198.261719 159.710938 L 214.386719 147 L 198.261719 134.289062 C 197.886719 133.992188 197.824219 133.449219 198.117188 133.070312 C 198.289062 132.855469 198.542969 132.742188 198.796875 132.742188 " fill-opacity="1" fill-rule="nonzero"/></g><path fill="#03fa6e" d="M 179.144531 169.980469 C 178.957031 169.980469 178.777344 169.945312 178.601562 169.875 C 178.226562 169.730469 177.929688 169.449219 177.769531 169.082031 C 177.605469 168.710938 177.597656 168.300781 177.742188 167.929688 L 194.335938 124.980469 C 194.558594 124.40625 195.121094 124.019531 195.738281 124.019531 C 195.925781 124.019531 196.109375 124.054688 196.28125 124.121094 C 197.054688 124.421875 197.441406 125.296875 197.140625 126.074219 L 180.550781 169.015625 C 180.328125 169.589844 179.761719 169.980469 179.144531 169.980469 " fill-opacity="1" fill-rule="nonzero"/><g clip-path="url(#e8dcde6709)"><path fill="#2a446b" d="M 195.738281 123.375 C 194.859375 123.375 194.054688 123.929688 193.738281 124.75 L 177.144531 167.695312 C 176.9375 168.230469 176.953125 168.8125 177.183594 169.339844 C 177.414062 169.863281 177.835938 170.269531 178.371094 170.476562 C 178.621094 170.574219 178.878906 170.621094 179.144531 170.621094 C 180.023438 170.621094 180.828125 170.070312 181.148438 169.246094 L 197.738281 126.304688 C 198.167969 125.199219 197.617188 123.949219 196.511719 123.523438 C 196.265625 123.425781 196.003906 123.375 195.738281 123.375 Z M 195.738281 124.660156 C 195.84375 124.660156 195.945312 124.679688 196.050781 124.71875 C 196.496094 124.890625 196.714844 125.390625 196.542969 125.839844 L 179.949219 168.78125 C 179.820312 169.128906 179.492188 169.335938 179.144531 169.335938 C 179.039062 169.335938 178.9375 169.320312 178.832031 169.277344 C 178.386719 169.105469 178.167969 168.601562 178.339844 168.160156 L 194.933594 125.214844 C 195.066406 124.871094 195.390625 124.660156 195.738281 124.660156 " fill-opacity="1" fill-rule="nonzero"/></g><g fill="#ffffff" fill-opacity="1"><g transform="translate(92.023237, 216.866295)"><g><path d="M 24.890625 -28.421875 C 25.140625 -28.421875 25.363281 -28.335938 25.5625 -28.171875 C 25.726562 -27.972656 25.8125 -27.75 25.8125 -27.5 L 25.8125 -0.90625 C 25.8125 -0.65625 25.726562 -0.453125 25.5625 -0.296875 C 25.363281 -0.0976562 25.140625 0 24.890625 0 L 21.046875 0 C 20.796875 0 20.585938 -0.0976562 20.421875 -0.296875 C 20.222656 -0.453125 20.125 -0.65625 20.125 -0.90625 L 20.125 -18.59375 L 16.734375 -13.21875 C 16.597656 -12.988281 16.40625 -12.796875 16.15625 -12.640625 C 15.875 -12.492188 15.613281 -12.421875 15.375 -12.421875 L 13.546875 -12.421875 C 13.296875 -12.421875 13.035156 -12.492188 12.765625 -12.640625 C 12.515625 -12.796875 12.316406 -12.988281 12.171875 -13.21875 L 8.734375 -18.640625 L 8.734375 -0.90625 C 8.734375 -0.65625 8.648438 -0.453125 8.484375 -0.296875 C 8.296875 -0.0976562 8.078125 0 7.828125 0 L 3.96875 0 C 3.726562 0 3.523438 -0.0976562 3.359375 -0.296875 C 3.160156 -0.453125 3.0625 -0.65625 3.0625 -0.90625 L 3.0625 -27.5 C 3.0625 -27.75 3.160156 -27.972656 3.359375 -28.171875 C 3.523438 -28.335938 3.726562 -28.421875 3.96875 -28.421875 L 7.828125 -28.421875 L 8.125 -28.375 C 8.257812 -28.34375 8.394531 -28.273438 8.53125 -28.171875 C 8.8125 -28.023438 9.019531 -27.84375 9.15625 -27.625 L 14.453125 -18.46875 L 19.765625 -27.625 C 19.898438 -27.84375 20.09375 -28.023438 20.34375 -28.171875 L 20.671875 -28.328125 C 20.773438 -28.390625 20.898438 -28.421875 21.046875 -28.421875 Z M 24.890625 -28.421875 "/></g></g></g><g fill="#ffffff" fill-opacity="1"><g transform="translate(119.314699, 216.866295)"><g><path d="M 25.265625 -23.609375 C 25.265625 -23.359375 25.175781 -23.148438 25 -22.984375 C 24.820312 -22.816406 24.609375 -22.734375 24.359375 -22.734375 L 17.265625 -22.734375 L 17.265625 -5.671875 L 24.359375 -5.671875 C 24.609375 -5.671875 24.820312 -5.582031 25 -5.40625 C 25.175781 -5.226562 25.265625 -5.015625 25.265625 -4.765625 L 25.265625 -0.90625 C 25.265625 -0.65625 25.175781 -0.441406 25 -0.265625 C 24.820312 -0.0859375 24.609375 0 24.359375 0 L 4.5625 0 C 4.3125 0 4.09375 -0.0859375 3.90625 -0.265625 C 3.726562 -0.441406 3.640625 -0.65625 3.640625 -0.90625 L 3.640625 -4.765625 C 3.640625 -5.015625 3.726562 -5.226562 3.90625 -5.40625 C 4.09375 -5.582031 4.3125 -5.671875 4.5625 -5.671875 L 11.59375 -5.671875 L 11.59375 -22.734375 L 4.5625 -22.734375 C 4.3125 -22.734375 4.09375 -22.816406 3.90625 -22.984375 C 3.726562 -23.148438 3.640625 -23.359375 3.640625 -23.609375 L 3.640625 -27.5 C 3.640625 -27.75 3.726562 -27.960938 3.90625 -28.140625 C 4.09375 -28.328125 4.3125 -28.421875 4.5625 -28.421875 L 24.359375 -28.421875 C 24.609375 -28.421875 24.820312 -28.328125 25 -28.140625 C 25.175781 -27.960938 25.265625 -27.75 25.265625 -27.5 Z M 25.265625 -23.609375 "/></g></g></g><g fill="#ffffff" fill-opacity="1"><g transform="translate(146.60616, 216.866295)"><g><path d="M 21.046875 -19.875 C 20.796875 -19.875 20.578125 -19.960938 20.390625 -20.140625 C 20.210938 -20.328125 20.125 -20.546875 20.125 -20.796875 L 20.125 -21.078125 C 20.125 -21.546875 19.960938 -21.9375 19.640625 -22.25 C 19.328125 -22.570312 18.9375 -22.734375 18.46875 -22.734375 L 10.390625 -22.734375 C 9.921875 -22.734375 9.535156 -22.570312 9.234375 -22.25 C 8.929688 -21.9375 8.78125 -21.546875 8.78125 -21.078125 L 8.78125 -7.328125 C 8.78125 -6.859375 8.929688 -6.460938 9.234375 -6.140625 C 9.535156 -5.828125 9.921875 -5.671875 10.390625 -5.671875 L 18.46875 -5.671875 C 18.9375 -5.671875 19.328125 -5.828125 19.640625 -6.140625 C 19.960938 -6.460938 20.125 -6.859375 20.125 -7.328125 L 20.125 -7.625 C 20.125 -7.875 20.210938 -8.085938 20.390625 -8.265625 C 20.578125 -8.441406 20.796875 -8.53125 21.046875 -8.53125 L 24.890625 -8.53125 C 25.140625 -8.53125 25.351562 -8.441406 25.53125 -8.265625 C 25.71875 -8.085938 25.8125 -7.875 25.8125 -7.625 L 25.8125 -7.328125 C 25.8125 -6.304688 25.613281 -5.351562 25.21875 -4.46875 C 24.832031 -3.582031 24.304688 -2.804688 23.640625 -2.140625 C 22.984375 -1.484375 22.210938 -0.960938 21.328125 -0.578125 C 20.441406 -0.191406 19.488281 0 18.46875 0 L 10.390625 0 C 9.398438 0 8.457031 -0.191406 7.5625 -0.578125 C 6.664062 -0.960938 5.882812 -1.484375 5.21875 -2.140625 C 4.550781 -2.804688 4.023438 -3.582031 3.640625 -4.46875 C 3.253906 -5.351562 3.0625 -6.304688 3.0625 -7.328125 L 3.0625 -21.078125 C 3.0625 -22.097656 3.253906 -23.050781 3.640625 -23.9375 C 4.023438 -24.820312 4.550781 -25.59375 5.21875 -26.25 C 5.882812 -26.914062 6.664062 -27.441406 7.5625 -27.828125 C 8.457031 -28.222656 9.398438 -28.421875 10.390625 -28.421875 L 18.46875 -28.421875 C 19.488281 -28.421875 20.441406 -28.222656 21.328125 -27.828125 C 22.210938 -27.441406 22.984375 -26.914062 23.640625 -26.25 C 24.304688 -25.59375 24.832031 -24.820312 25.21875 -23.9375 C 25.613281 -23.050781 25.8125 -22.097656 25.8125 -21.078125 L 25.8125 -20.796875 C 25.8125 -20.546875 25.71875 -20.328125 25.53125 -20.140625 C 25.351562 -19.960938 25.140625 -19.875 24.890625 -19.875 Z M 21.046875 -19.875 "/></g></g></g><g fill="#ffffff" fill-opacity="1"><g transform="translate(173.897622, 216.866295)"><g><path d="M 20.09375 -27.5 C 20.09375 -27.75 20.179688 -27.960938 20.359375 -28.140625 C 20.535156 -28.328125 20.75 -28.421875 21 -28.421875 L 24.890625 -28.421875 C 25.140625 -28.421875 25.347656 -28.328125 25.515625 -28.140625 C 25.679688 -27.960938 25.765625 -27.75 25.765625 -27.5 L 25.765625 -0.90625 C 25.765625 -0.65625 25.679688 -0.441406 25.515625 -0.265625 C 25.347656 -0.0859375 25.140625 0 24.890625 0 L 21 0 C 20.75 0 20.535156 -0.0859375 20.359375 -0.265625 C 20.179688 -0.441406 20.09375 -0.65625 20.09375 -0.90625 L 20.09375 -11.34375 L 8.734375 -11.34375 L 8.734375 -0.90625 C 8.734375 -0.65625 8.644531 -0.441406 8.46875 -0.265625 C 8.289062 -0.0859375 8.078125 0 7.828125 0 L 3.9375 0 C 3.6875 0 3.476562 -0.0859375 3.3125 -0.265625 C 3.144531 -0.441406 3.0625 -0.65625 3.0625 -0.90625 L 3.0625 -27.5 C 3.0625 -27.75 3.144531 -27.960938 3.3125 -28.140625 C 3.476562 -28.328125 3.6875 -28.421875 3.9375 -28.421875 L 7.828125 -28.421875 C 8.078125 -28.421875 8.289062 -28.328125 8.46875 -28.140625 C 8.644531 -27.960938 8.734375 -27.75 8.734375 -27.5 L 8.734375 -17.03125 L 20.09375 -17.03125 Z M 20.09375 -27.5 "/></g></g></g><g fill="#ffffff" fill-opacity="1"><g transform="translate(201.147679, 216.866295)"><g><path d="M 18.3125 -28.421875 C 18.5625 -28.421875 18.800781 -28.335938 19.03125 -28.171875 C 19.269531 -28.003906 19.429688 -27.8125 19.515625 -27.59375 L 25.46875 -12.765625 C 25.550781 -12.535156 25.628906 -12.25 25.703125 -11.90625 C 25.773438 -11.5625 25.8125 -11.265625 25.8125 -11.015625 L 25.8125 -0.90625 C 25.8125 -0.65625 25.71875 -0.441406 25.53125 -0.265625 C 25.351562 -0.0859375 25.140625 0 24.890625 0 L 21 0 C 20.75 0 20.535156 -0.0859375 20.359375 -0.265625 C 20.179688 -0.441406 20.09375 -0.65625 20.09375 -0.90625 L 20.09375 -5.671875 L 8.734375 -5.671875 L 8.734375 -0.90625 C 8.734375 -0.65625 8.644531 -0.441406 8.46875 -0.265625 C 8.289062 -0.0859375 8.078125 0 7.828125 0 L 3.96875 0 C 3.726562 0 3.515625 -0.0859375 3.328125 -0.265625 C 3.148438 -0.441406 3.0625 -0.65625 3.0625 -0.90625 L 3.0625 -11.015625 C 3.0625 -11.265625 3.09375 -11.5625 3.15625 -11.90625 C 3.226562 -12.25 3.304688 -12.535156 3.390625 -12.765625 L 9.3125 -27.59375 C 9.425781 -27.8125 9.597656 -28.003906 9.828125 -28.171875 C 10.066406 -28.335938 10.3125 -28.421875 10.5625 -28.421875 Z M 8.953125 -11.34375 L 19.875 -11.34375 L 15.328125 -22.734375 L 13.5 -22.734375 Z M 8.953125 -11.34375 "/></g></g></g><g fill="#ffffff" fill-opacity="1"><g transform="translate(228.439136, 216.866295)"><g><path d="M 25.34375 -23.609375 C 25.34375 -23.359375 25.257812 -23.148438 25.09375 -22.984375 C 24.9375 -22.816406 24.734375 -22.734375 24.484375 -22.734375 L 9.15625 -22.734375 L 9.15625 -17.03125 L 23.03125 -17.03125 C 23.28125 -17.03125 23.492188 -16.945312 23.671875 -16.78125 C 23.847656 -16.613281 23.9375 -16.40625 23.9375 -16.15625 L 23.9375 -12.265625 C 23.9375 -12.015625 23.847656 -11.796875 23.671875 -11.609375 C 23.492188 -11.429688 23.28125 -11.34375 23.03125 -11.34375 L 9.15625 -11.34375 L 9.15625 -5.671875 L 24.484375 -5.671875 C 24.734375 -5.671875 24.9375 -5.582031 25.09375 -5.40625 C 25.257812 -5.226562 25.34375 -5.015625 25.34375 -4.765625 L 25.34375 -0.90625 C 25.34375 -0.65625 25.257812 -0.441406 25.09375 -0.265625 C 24.9375 -0.0859375 24.734375 0 24.484375 0 L 4.34375 0 C 4.09375 0 3.882812 -0.0859375 3.71875 -0.265625 C 3.5625 -0.441406 3.484375 -0.65625 3.484375 -0.90625 L 3.484375 -27.5 C 3.484375 -27.75 3.5625 -27.960938 3.71875 -28.140625 C 3.882812 -28.328125 4.09375 -28.421875 4.34375 -28.421875 L 24.484375 -28.421875 C 24.734375 -28.421875 24.9375 -28.328125 25.09375 -28.140625 C 25.257812 -27.960938 25.34375 -27.75 25.34375 -27.5 Z M 25.34375 -23.609375 "/></g></g></g><g fill="#ffffff" fill-opacity="1"><g transform="translate(255.689188, 216.866295)"><g><path d="M 24.5625 0 L 5.171875 0 C 4.929688 0 4.71875 -0.0859375 4.53125 -0.265625 C 4.351562 -0.441406 4.265625 -0.65625 4.265625 -0.90625 L 4.265625 -27.5 C 4.265625 -27.75 4.351562 -27.960938 4.53125 -28.140625 C 4.71875 -28.328125 4.929688 -28.421875 5.171875 -28.421875 L 9.03125 -28.421875 C 9.28125 -28.421875 9.492188 -28.328125 9.671875 -28.140625 C 9.847656 -27.960938 9.9375 -27.75 9.9375 -27.5 L 9.9375 -5.671875 L 24.5625 -5.671875 C 24.8125 -5.671875 25.019531 -5.582031 25.1875 -5.40625 C 25.351562 -5.226562 25.4375 -5.015625 25.4375 -4.765625 L 25.4375 -0.90625 C 25.4375 -0.65625 25.351562 -0.441406 25.1875 -0.265625 C 25.019531 -0.0859375 24.8125 0 24.5625 0 Z M 24.5625 0 "/></g></g></g><g fill="#03fa6e" fill-opacity="1"><g transform="translate(149.128318, 246.049906)"><g><path d="M 11.828125 -0.359375 C 11.890625 -0.265625 11.898438 -0.179688 11.859375 -0.109375 C 11.816406 -0.0351562 11.738281 0 11.625 0 L 9.421875 0 C 9.304688 0 9.191406 -0.0351562 9.078125 -0.109375 C 8.960938 -0.179688 8.875 -0.265625 8.8125 -0.359375 L 6.015625 -5.265625 L 4.15625 -5.265625 L 4.15625 -0.421875 C 4.15625 -0.304688 4.113281 -0.207031 4.03125 -0.125 C 3.945312 -0.0390625 3.847656 0 3.734375 0 L 1.921875 0 C 1.804688 0 1.707031 -0.0390625 1.625 -0.125 C 1.550781 -0.207031 1.515625 -0.304688 1.515625 -0.421875 L 1.515625 -12.765625 C 1.515625 -12.878906 1.550781 -12.976562 1.625 -13.0625 C 1.707031 -13.144531 1.804688 -13.1875 1.921875 -13.1875 L 3.734375 -13.1875 C 3.847656 -13.1875 3.945312 -13.144531 4.03125 -13.0625 C 4.113281 -12.976562 4.15625 -12.878906 4.15625 -12.765625 L 4.15625 -7.90625 L 6.015625 -7.90625 L 8.8125 -12.828125 C 8.875 -12.929688 8.960938 -13.015625 9.078125 -13.078125 C 9.191406 -13.148438 9.304688 -13.1875 9.421875 -13.1875 L 11.625 -13.1875 C 11.738281 -13.1875 11.816406 -13.148438 11.859375 -13.078125 C 11.898438 -13.015625 11.890625 -12.929688 11.828125 -12.828125 L 8.3125 -6.59375 Z M 11.828125 -0.359375 "/></g></g></g><g fill="#03fa6e" fill-opacity="1"><g transform="translate(161.800878, 246.049906)"><g><path d="M 11.734375 -10.96875 C 11.734375 -10.851562 11.691406 -10.753906 11.609375 -10.671875 C 11.523438 -10.597656 11.425781 -10.5625 11.3125 -10.5625 L 8.015625 -10.5625 L 8.015625 -2.640625 L 11.3125 -2.640625 C 11.425781 -2.640625 11.523438 -2.597656 11.609375 -2.515625 C 11.691406 -2.429688 11.734375 -2.332031 11.734375 -2.21875 L 11.734375 -0.421875 C 11.734375 -0.304688 11.691406 -0.207031 11.609375 -0.125 C 11.523438 -0.0390625 11.425781 0 11.3125 0 L 2.109375 0 C 1.992188 0 1.894531 -0.0390625 1.8125 -0.125 C 1.726562 -0.207031 1.6875 -0.304688 1.6875 -0.421875 L 1.6875 -2.21875 C 1.6875 -2.332031 1.726562 -2.429688 1.8125 -2.515625 C 1.894531 -2.597656 1.992188 -2.640625 2.109375 -2.640625 L 5.390625 -2.640625 L 5.390625 -10.5625 L 2.109375 -10.5625 C 1.992188 -10.5625 1.894531 -10.597656 1.8125 -10.671875 C 1.726562 -10.753906 1.6875 -10.851562 1.6875 -10.96875 L 1.6875 -12.765625 C 1.6875 -12.878906 1.726562 -12.976562 1.8125 -13.0625 C 1.894531 -13.144531 1.992188 -13.1875 2.109375 -13.1875 L 11.3125 -13.1875 C 11.425781 -13.1875 11.523438 -13.144531 11.609375 -13.0625 C 11.691406 -12.976562 11.734375 -12.878906 11.734375 -12.765625 Z M 11.734375 -10.96875 "/></g></g></g><g fill="#03fa6e" fill-opacity="1"><g transform="translate(174.473439, 246.049906)"><g><path d="M 9.328125 -12.765625 C 9.328125 -12.878906 9.367188 -12.976562 9.453125 -13.0625 C 9.535156 -13.144531 9.632812 -13.1875 9.75 -13.1875 L 11.5625 -13.1875 C 11.675781 -13.1875 11.773438 -13.144531 11.859375 -13.0625 C 11.941406 -12.976562 11.984375 -12.878906 11.984375 -12.765625 L 11.984375 -0.421875 C 11.984375 -0.304688 11.941406 -0.207031 11.859375 -0.125 C 11.773438 -0.0390625 11.675781 0 11.5625 0 L 9.75 0 C 9.632812 0 9.535156 -0.0390625 9.453125 -0.125 C 9.367188 -0.207031 9.328125 -0.304688 9.328125 -0.421875 L 9.328125 -4.921875 L 4.0625 -9.65625 L 4.0625 -0.421875 C 4.0625 -0.304688 4.019531 -0.207031 3.9375 -0.125 C 3.851562 -0.0390625 3.753906 0 3.640625 0 L 1.84375 0 C 1.726562 0 1.628906 -0.0390625 1.546875 -0.125 C 1.460938 -0.207031 1.421875 -0.304688 1.421875 -0.421875 L 1.421875 -12.765625 C 1.421875 -12.878906 1.460938 -12.976562 1.546875 -13.0625 C 1.628906 -13.144531 1.726562 -13.1875 1.84375 -13.1875 L 3.640625 -13.1875 C 3.753906 -13.1875 3.878906 -13.15625 4.015625 -13.09375 C 4.160156 -13.039062 4.273438 -12.976562 4.359375 -12.90625 L 9.328125 -8.46875 Z M 9.328125 -12.765625 "/></g></g></g><g fill="#03fa6e" fill-opacity="1"><g transform="translate(187.146, 246.049906)"><g><path d="M 9.75 -9.234375 C 9.632812 -9.234375 9.535156 -9.273438 9.453125 -9.359375 C 9.367188 -9.441406 9.328125 -9.539062 9.328125 -9.65625 L 9.328125 -9.796875 C 9.328125 -10.015625 9.253906 -10.195312 9.109375 -10.34375 C 8.972656 -10.488281 8.796875 -10.5625 8.578125 -10.5625 L 4.8125 -10.5625 C 4.601562 -10.5625 4.425781 -10.488281 4.28125 -10.34375 C 4.132812 -10.195312 4.0625 -10.015625 4.0625 -9.796875 L 4.0625 -8.671875 C 4.0625 -8.453125 4.132812 -8.269531 4.28125 -8.125 C 4.425781 -7.976562 4.601562 -7.90625 4.8125 -7.90625 L 8.578125 -7.90625 C 9.035156 -7.90625 9.46875 -7.8125 9.875 -7.625 C 10.289062 -7.445312 10.648438 -7.203125 10.953125 -6.890625 C 11.265625 -6.585938 11.507812 -6.234375 11.6875 -5.828125 C 11.875 -5.421875 11.96875 -4.984375 11.96875 -4.515625 L 11.96875 -3.40625 C 11.96875 -2.925781 11.875 -2.484375 11.6875 -2.078125 C 11.507812 -1.671875 11.265625 -1.3125 10.953125 -1 C 10.648438 -0.6875 10.289062 -0.441406 9.875 -0.265625 C 9.46875 -0.0859375 9.035156 0 8.578125 0 L 4.8125 0 C 4.34375 0 3.90625 -0.0859375 3.5 -0.265625 C 3.09375 -0.441406 2.734375 -0.6875 2.421875 -1 C 2.117188 -1.3125 1.875 -1.671875 1.6875 -2.078125 C 1.507812 -2.484375 1.421875 -2.925781 1.421875 -3.40625 L 1.421875 -3.546875 C 1.421875 -3.660156 1.460938 -3.757812 1.546875 -3.84375 C 1.628906 -3.925781 1.726562 -3.96875 1.84375 -3.96875 L 3.640625 -3.96875 C 3.753906 -3.96875 3.851562 -3.925781 3.9375 -3.84375 C 4.019531 -3.757812 4.0625 -3.660156 4.0625 -3.546875 L 4.0625 -3.40625 C 4.0625 -3.1875 4.132812 -3.003906 4.28125 -2.859375 C 4.425781 -2.710938 4.601562 -2.640625 4.8125 -2.640625 L 8.578125 -2.640625 C 8.796875 -2.640625 8.972656 -2.710938 9.109375 -2.859375 C 9.253906 -3.003906 9.328125 -3.1875 9.328125 -3.40625 L 9.328125 -4.515625 C 9.328125 -4.734375 9.253906 -4.910156 9.109375 -5.046875 C 8.972656 -5.191406 8.796875 -5.265625 8.578125 -5.265625 L 4.8125 -5.265625 C 4.34375 -5.265625 3.90625 -5.351562 3.5 -5.53125 C 3.09375 -5.71875 2.734375 -5.960938 2.421875 -6.265625 C 2.117188 -6.578125 1.875 -6.941406 1.6875 -7.359375 C 1.507812 -7.773438 1.421875 -8.210938 1.421875 -8.671875 L 1.421875 -9.796875 C 1.421875 -10.265625 1.507812 -10.703125 1.6875 -11.109375 C 1.875 -11.523438 2.117188 -11.882812 2.421875 -12.1875 C 2.734375 -12.5 3.09375 -12.742188 3.5 -12.921875 C 3.90625 -13.097656 4.34375 -13.1875 4.8125 -13.1875 L 8.578125 -13.1875 C 9.035156 -13.1875 9.46875 -13.097656 9.875 -12.921875 C 10.289062 -12.742188 10.648438 -12.5 10.953125 -12.1875 C 11.265625 -11.882812 11.507812 -11.523438 11.6875 -11.109375 C 11.875 -10.703125 11.96875 -10.265625 11.96875 -9.796875 L 11.96875 -9.65625 C 11.96875 -9.539062 11.925781 -9.441406 11.84375 -9.359375 C 11.769531 -9.273438 11.675781 -9.234375 11.5625 -9.234375 Z M 9.75 -9.234375 "/></g></g></g><g fill="#03fa6e" fill-opacity="1"><g transform="translate(199.818562, 246.049906)"><g><path d="M 11.765625 -10.96875 C 11.765625 -10.851562 11.726562 -10.753906 11.65625 -10.671875 C 11.582031 -10.597656 11.488281 -10.5625 11.375 -10.5625 L 4.25 -10.5625 L 4.25 -7.90625 L 10.6875 -7.90625 C 10.8125 -7.90625 10.914062 -7.863281 11 -7.78125 C 11.082031 -7.707031 11.125 -7.613281 11.125 -7.5 L 11.125 -5.6875 C 11.125 -5.570312 11.082031 -5.472656 11 -5.390625 C 10.914062 -5.304688 10.8125 -5.265625 10.6875 -5.265625 L 4.25 -5.265625 L 4.25 -2.640625 L 11.375 -2.640625 C 11.488281 -2.640625 11.582031 -2.597656 11.65625 -2.515625 C 11.726562 -2.429688 11.765625 -2.332031 11.765625 -2.21875 L 11.765625 -0.421875 C 11.765625 -0.304688 11.726562 -0.207031 11.65625 -0.125 C 11.582031 -0.0390625 11.488281 0 11.375 0 L 2.015625 0 C 1.898438 0 1.800781 -0.0390625 1.71875 -0.125 C 1.644531 -0.207031 1.609375 -0.304688 1.609375 -0.421875 L 1.609375 -12.765625 C 1.609375 -12.878906 1.644531 -12.976562 1.71875 -13.0625 C 1.800781 -13.144531 1.898438 -13.1875 2.015625 -13.1875 L 11.375 -13.1875 C 11.488281 -13.1875 11.582031 -13.144531 11.65625 -13.0625 C 11.726562 -12.976562 11.765625 -12.878906 11.765625 -12.765625 Z M 11.765625 -10.96875 "/></g></g></g><g fill="#03fa6e" fill-opacity="1"><g transform="translate(212.471899, 246.049906)"><g><path d="M 11.5625 -13.1875 C 11.675781 -13.1875 11.769531 -13.144531 11.84375 -13.0625 C 11.925781 -12.976562 11.96875 -12.878906 11.96875 -12.765625 L 11.96875 -9.8125 C 11.96875 -9.695312 11.941406 -9.566406 11.890625 -9.421875 C 11.835938 -9.285156 11.765625 -9.171875 11.671875 -9.078125 L 8.015625 -5.171875 L 8.015625 -0.40625 C 8.015625 -0.300781 7.972656 -0.207031 7.890625 -0.125 C 7.804688 -0.0390625 7.707031 0 7.59375 0 L 5.796875 0 C 5.671875 0 5.566406 -0.0390625 5.484375 -0.125 C 5.398438 -0.207031 5.359375 -0.300781 5.359375 -0.40625 L 5.359375 -5.171875 L 1.71875 -9.078125 C 1.625 -9.171875 1.550781 -9.285156 1.5 -9.421875 C 1.445312 -9.566406 1.421875 -9.695312 1.421875 -9.8125 L 1.421875 -12.765625 C 1.421875 -12.878906 1.457031 -12.976562 1.53125 -13.0625 C 1.613281 -13.144531 1.710938 -13.1875 1.828125 -13.1875 L 3.640625 -13.1875 C 3.753906 -13.1875 3.851562 -13.144531 3.9375 -13.0625 C 4.019531 -12.976562 4.0625 -12.878906 4.0625 -12.765625 L 4.0625 -10.84375 C 4.0625 -10.726562 4.085938 -10.597656 4.140625 -10.453125 C 4.203125 -10.316406 4.269531 -10.210938 4.34375 -10.140625 L 6.6875 -7.640625 L 9.046875 -10.140625 C 9.117188 -10.210938 9.179688 -10.316406 9.234375 -10.453125 C 9.296875 -10.597656 9.328125 -10.726562 9.328125 -10.84375 L 9.328125 -12.765625 C 9.328125 -12.878906 9.367188 -12.976562 9.453125 -13.0625 C 9.535156 -13.144531 9.632812 -13.1875 9.75 -13.1875 Z M 11.5625 -13.1875 "/></g></g></g></svg>