<svg xmlns="http://www.w3.org/2000/svg" xmlns:xlink="http://www.w3.org/1999/xlink" width="729" zoomAndPan="magnify" viewBox="0 0 546.75 67.499998" height="90" preserveAspectRatio="xMidYMid meet" version="1.0"><defs><g/></defs><g fill="#03fa6e" fill-opacity="1"><g transform="translate(4.015773, 46.924015)"><g><path d="M 3.953125 -12.984375 L 3.953125 -16.453125 C 3.953125 -16.628906 4 -16.800781 4.09375 -16.96875 C 4.195312 -17.144531 4.320312 -17.257812 4.46875 -17.3125 L 25.484375 -26.8125 C 25.628906 -26.875 25.757812 -26.875 25.875 -26.8125 C 25.988281 -26.757812 26.046875 -26.644531 26.046875 -26.46875 L 26.046875 -24.625 C 26.046875 -24.445312 25.988281 -24.269531 25.875 -24.09375 C 25.757812 -23.925781 25.628906 -23.816406 25.484375 -23.765625 L 5.84375 -14.734375 L 25.484375 -5.71875 C 25.628906 -5.65625 25.757812 -5.535156 25.875 -5.359375 C 25.988281 -5.191406 26.046875 -5.023438 26.046875 -4.859375 L 26.046875 -3.015625 C 26.046875 -2.835938 25.988281 -2.710938 25.875 -2.640625 C 25.757812 -2.566406 25.628906 -2.578125 25.484375 -2.671875 L 4.46875 -12.125 C 4.125 -12.320312 3.953125 -12.609375 3.953125 -12.984375 Z M 3.953125 -12.984375 "/></g></g></g><g fill="#03fa6e" fill-opacity="1"><g transform="translate(33.920904, 46.924015)"><g><path d="M 5.203125 4.125 L 21.0625 -33.609375 C 21.113281 -33.742188 21.222656 -33.867188 21.390625 -33.984375 C 21.566406 -34.097656 21.742188 -34.15625 21.921875 -34.15625 L 24.40625 -34.15625 C 24.550781 -34.15625 24.660156 -34.097656 24.734375 -33.984375 C 24.804688 -33.867188 24.8125 -33.742188 24.75 -33.609375 L 8.890625 4.125 C 8.835938 4.300781 8.722656 4.4375 8.546875 4.53125 C 8.378906 4.632812 8.222656 4.6875 8.078125 4.6875 L 5.59375 4.6875 C 5.1875 4.6875 5.054688 4.5 5.203125 4.125 Z M 5.203125 4.125 "/></g></g></g><g fill="#03fa6e" fill-opacity="1"><g transform="translate(63.869007, 46.924015)"><g><path d="M 4.46875 -5.71875 L 24.109375 -14.734375 L 4.46875 -23.765625 C 4.320312 -23.816406 4.195312 -23.925781 4.09375 -24.09375 C 4 -24.269531 3.953125 -24.445312 3.953125 -24.625 L 3.953125 -26.46875 C 3.953125 -26.84375 4.125 -26.957031 4.46875 -26.8125 L 25.484375 -17.3125 C 25.628906 -17.257812 25.757812 -17.144531 25.875 -16.96875 C 25.988281 -16.800781 26.046875 -16.628906 26.046875 -16.453125 L 26.046875 -12.984375 C 26.046875 -12.609375 25.859375 -12.320312 25.484375 -12.125 L 4.46875 -2.671875 C 4.320312 -2.578125 4.195312 -2.566406 4.09375 -2.640625 C 4 -2.710938 3.953125 -2.835938 3.953125 -3.015625 L 3.953125 -4.859375 C 3.953125 -5.023438 4 -5.191406 4.09375 -5.359375 C 4.195312 -5.535156 4.320312 -5.65625 4.46875 -5.71875 Z M 4.46875 -5.71875 "/></g></g></g><g fill="#03fa6e" fill-opacity="1"><g transform="translate(93.774138, 46.924015)"><g/></g></g><g fill="#03fa6e" fill-opacity="1"><g transform="translate(123.679269, 46.924015)"><g><path d="M 21.875 -28.96875 C 21.957031 -29.101562 22.09375 -29.222656 22.28125 -29.328125 C 22.46875 -29.429688 22.644531 -29.484375 22.8125 -29.484375 L 25.4375 -29.484375 C 25.84375 -29.484375 26.046875 -29.28125 26.046875 -28.875 L 26.046875 -0.609375 C 26.046875 -0.203125 25.84375 0 25.4375 0 L 23.375 0 C 22.976562 0 22.78125 -0.203125 22.78125 -0.609375 L 22.78125 -25.390625 L 16.546875 -15.25 C 16.460938 -15.113281 16.328125 -14.992188 16.140625 -14.890625 C 15.953125 -14.785156 15.785156 -14.734375 15.640625 -14.734375 L 14.359375 -14.734375 C 14.179688 -14.734375 14 -14.785156 13.8125 -14.890625 C 13.625 -14.992188 13.488281 -15.113281 13.40625 -15.25 L 7.171875 -25.390625 L 7.171875 -0.609375 C 7.171875 -0.203125 6.972656 0 6.578125 0 L 4.5625 0 C 4.15625 0 3.953125 -0.203125 3.953125 -0.609375 L 3.953125 -28.875 C 3.953125 -29.28125 4.15625 -29.484375 4.5625 -29.484375 L 7.171875 -29.484375 C 7.316406 -29.484375 7.484375 -29.429688 7.671875 -29.328125 C 7.859375 -29.222656 7.992188 -29.101562 8.078125 -28.96875 L 15 -18.65625 Z M 21.875 -28.96875 "/></g></g></g><g fill="#03fa6e" fill-opacity="1"><g transform="translate(153.627372, 46.924015)"><g><path d="M 4.515625 -0.609375 L 4.515625 -2.671875 C 4.515625 -2.804688 4.570312 -2.9375 4.6875 -3.0625 C 4.800781 -3.195312 4.941406 -3.265625 5.109375 -3.265625 L 13.359375 -3.265625 L 13.359375 -26.21875 L 5.109375 -26.21875 C 4.710938 -26.21875 4.515625 -26.414062 4.515625 -26.8125 L 4.515625 -28.875 C 4.515625 -29.28125 4.710938 -29.484375 5.109375 -29.484375 L 24.84375 -29.484375 C 25.238281 -29.484375 25.4375 -29.28125 25.4375 -28.875 L 25.4375 -26.8125 C 25.4375 -26.414062 25.238281 -26.21875 24.84375 -26.21875 L 16.625 -26.21875 L 16.625 -3.265625 L 24.84375 -3.265625 C 25.007812 -3.265625 25.148438 -3.195312 25.265625 -3.0625 C 25.378906 -2.9375 25.4375 -2.804688 25.4375 -2.671875 L 25.4375 -0.609375 C 25.4375 -0.203125 25.238281 0 24.84375 0 L 5.109375 0 C 4.710938 0 4.515625 -0.203125 4.515625 -0.609375 Z M 4.515625 -0.609375 "/></g></g></g><g fill="#03fa6e" fill-opacity="1"><g transform="translate(183.575474, 46.924015)"><g><path d="M 26.046875 -21.234375 C 26.046875 -20.828125 25.84375 -20.625 25.4375 -20.625 L 23.375 -20.625 C 22.976562 -20.625 22.78125 -20.828125 22.78125 -21.234375 L 22.78125 -23.25 C 22.75 -24.082031 22.445312 -24.785156 21.875 -25.359375 C 21.300781 -25.929688 20.597656 -26.21875 19.765625 -26.21875 L 10.1875 -26.21875 C 9.351562 -26.21875 8.640625 -25.921875 8.046875 -25.328125 C 7.460938 -24.742188 7.171875 -24.035156 7.171875 -23.203125 L 7.171875 -6.28125 C 7.171875 -5.445312 7.460938 -4.734375 8.046875 -4.140625 C 8.640625 -3.554688 9.351562 -3.265625 10.1875 -3.265625 L 19.765625 -3.265625 C 20.597656 -3.265625 21.300781 -3.539062 21.875 -4.09375 C 22.445312 -4.65625 22.75 -5.351562 22.78125 -6.1875 L 22.78125 -8.25 C 22.78125 -8.394531 22.835938 -8.53125 22.953125 -8.65625 C 23.066406 -8.789062 23.207031 -8.859375 23.375 -8.859375 L 25.4375 -8.859375 C 25.613281 -8.859375 25.757812 -8.789062 25.875 -8.65625 C 25.988281 -8.53125 26.046875 -8.394531 26.046875 -8.25 L 26.046875 -6.1875 C 26.046875 -5.332031 25.875 -4.53125 25.53125 -3.78125 C 25.1875 -3.039062 24.734375 -2.390625 24.171875 -1.828125 C 23.609375 -1.265625 22.945312 -0.816406 22.1875 -0.484375 C 21.4375 -0.160156 20.628906 0 19.765625 0 L 10.1875 0 C 9.320312 0 8.507812 -0.160156 7.75 -0.484375 C 7 -0.816406 6.34375 -1.265625 5.78125 -1.828125 C 5.21875 -2.390625 4.769531 -3.054688 4.4375 -3.828125 C 4.113281 -4.597656 3.953125 -5.414062 3.953125 -6.28125 L 3.953125 -23.203125 C 3.953125 -24.066406 4.113281 -24.875 4.4375 -25.625 C 4.769531 -26.382812 5.21875 -27.050781 5.78125 -27.625 C 6.34375 -28.195312 7 -28.648438 7.75 -28.984375 C 8.507812 -29.316406 9.320312 -29.484375 10.1875 -29.484375 L 19.765625 -29.484375 C 20.628906 -29.484375 21.4375 -29.316406 22.1875 -28.984375 C 22.945312 -28.648438 23.609375 -28.203125 24.171875 -27.640625 C 24.734375 -27.085938 25.1875 -26.429688 25.53125 -25.671875 C 25.875 -24.910156 26.046875 -24.101562 26.046875 -23.25 Z M 26.046875 -21.234375 "/></g></g></g><g fill="#03fa6e" fill-opacity="1"><g transform="translate(213.523577, 46.924015)"><g><path d="M 22.78125 -0.609375 L 22.78125 -13.109375 L 7.171875 -13.109375 L 7.171875 -0.609375 C 7.171875 -0.203125 6.972656 0 6.578125 0 L 4.5625 0 C 4.15625 0 3.953125 -0.203125 3.953125 -0.609375 L 3.953125 -28.875 C 3.953125 -29.28125 4.15625 -29.484375 4.5625 -29.484375 L 6.578125 -29.484375 C 6.972656 -29.484375 7.171875 -29.28125 7.171875 -28.875 L 7.171875 -16.375 L 22.78125 -16.375 L 22.78125 -28.875 C 22.78125 -29.28125 22.976562 -29.484375 23.375 -29.484375 L 25.4375 -29.484375 C 25.84375 -29.484375 26.046875 -29.28125 26.046875 -28.875 L 26.046875 -0.609375 C 26.046875 -0.203125 25.84375 0 25.4375 0 L 23.375 0 C 22.976562 0 22.78125 -0.203125 22.78125 -0.609375 Z M 22.78125 -0.609375 "/></g></g></g><g fill="#03fa6e" fill-opacity="1"><g transform="translate(243.428708, 46.924015)"><g><path d="M 19 -29.484375 C 19.164062 -29.484375 19.328125 -29.425781 19.484375 -29.3125 C 19.640625 -29.195312 19.75 -29.066406 19.8125 -28.921875 L 25.78125 -13.96875 C 25.84375 -13.820312 25.894531 -13.632812 25.9375 -13.40625 C 25.976562 -13.175781 26 -12.976562 26 -12.8125 L 26 -0.609375 C 26 -0.203125 25.796875 0 25.390625 0 L 23.375 0 C 22.976562 0 22.78125 -0.203125 22.78125 -0.609375 L 22.78125 -8.546875 L 7.171875 -8.546875 L 7.171875 -0.609375 C 7.171875 -0.203125 6.972656 0 6.578125 0 L 4.515625 0 C 4.109375 0 3.90625 -0.203125 3.90625 -0.609375 L 3.90625 -12.8125 C 3.90625 -12.976562 3.925781 -13.175781 3.96875 -13.40625 C 4.019531 -13.632812 4.070312 -13.820312 4.125 -13.96875 L 10.09375 -28.921875 C 10.15625 -29.066406 10.269531 -29.195312 10.4375 -29.3125 C 10.613281 -29.425781 10.773438 -29.484375 10.921875 -29.484375 Z M 22.78125 -11.78125 L 22.78125 -12.8125 L 17.40625 -26.21875 L 12.546875 -26.21875 L 7.171875 -12.8125 L 7.171875 -11.78125 Z M 22.78125 -11.78125 "/></g></g></g><g fill="#03fa6e" fill-opacity="1"><g transform="translate(273.376799, 46.924015)"><g><path d="M 4.59375 -0.609375 L 4.59375 -28.875 C 4.59375 -29.28125 4.796875 -29.484375 5.203125 -29.484375 L 25.21875 -29.484375 C 25.625 -29.484375 25.828125 -29.28125 25.828125 -28.875 L 25.828125 -26.8125 C 25.828125 -26.414062 25.625 -26.21875 25.21875 -26.21875 L 7.828125 -26.21875 L 7.828125 -16.375 L 22.90625 -16.375 C 23.050781 -16.375 23.1875 -16.304688 23.3125 -16.171875 C 23.4375 -16.046875 23.5 -15.910156 23.5 -15.765625 L 23.5 -13.703125 C 23.5 -13.535156 23.4375 -13.394531 23.3125 -13.28125 C 23.1875 -13.164062 23.050781 -13.109375 22.90625 -13.109375 L 7.828125 -13.109375 L 7.828125 -3.265625 L 25.21875 -3.265625 C 25.394531 -3.265625 25.539062 -3.195312 25.65625 -3.0625 C 25.769531 -2.9375 25.828125 -2.804688 25.828125 -2.671875 L 25.828125 -0.609375 C 25.828125 -0.203125 25.625 0 25.21875 0 L 5.203125 0 C 4.796875 0 4.59375 -0.203125 4.59375 -0.609375 Z M 4.59375 -0.609375 "/></g></g></g><g fill="#03fa6e" fill-opacity="1"><g transform="translate(303.28193, 46.924015)"><g><path d="M 5.671875 -29.484375 L 7.734375 -29.484375 C 8.140625 -29.484375 8.34375 -29.28125 8.34375 -28.875 L 8.34375 -3.265625 L 25.140625 -3.265625 C 25.304688 -3.265625 25.445312 -3.195312 25.5625 -3.0625 C 25.675781 -2.9375 25.734375 -2.804688 25.734375 -2.671875 L 25.734375 -0.609375 C 25.734375 -0.203125 25.535156 0 25.140625 0 L 5.671875 0 C 5.523438 0 5.390625 -0.0546875 5.265625 -0.171875 C 5.140625 -0.285156 5.078125 -0.429688 5.078125 -0.609375 L 5.078125 -28.875 C 5.078125 -29.050781 5.140625 -29.195312 5.265625 -29.3125 C 5.390625 -29.425781 5.523438 -29.484375 5.671875 -29.484375 Z M 5.671875 -29.484375 "/></g></g></g><g fill="#ffffff" fill-opacity="1"><g transform="translate(333.228706, 46.924015)"><g/></g></g><g fill="#03fa6e" fill-opacity="1"><g transform="translate(363.126469, 46.924015)"><g><path d="M 21.953125 -0.515625 L 14.875 -13.109375 L 7.4375 -13.109375 L 7.4375 -0.609375 C 7.4375 -0.203125 7.234375 0 6.828125 0 L 4.765625 0 C 4.628906 0 4.492188 -0.0546875 4.359375 -0.171875 C 4.234375 -0.285156 4.171875 -0.429688 4.171875 -0.609375 L 4.171875 -28.875 C 4.171875 -29.050781 4.234375 -29.195312 4.359375 -29.3125 C 4.492188 -29.425781 4.628906 -29.484375 4.765625 -29.484375 L 6.828125 -29.484375 C 7.234375 -29.484375 7.4375 -29.28125 7.4375 -28.875 L 7.4375 -16.375 L 14.875 -16.375 L 21.953125 -28.96875 C 22.046875 -29.101562 22.175781 -29.222656 22.34375 -29.328125 C 22.519531 -29.429688 22.691406 -29.484375 22.859375 -29.484375 L 25.390625 -29.484375 C 25.566406 -29.484375 25.679688 -29.429688 25.734375 -29.328125 C 25.796875 -29.222656 25.785156 -29.101562 25.703125 -28.96875 L 17.703125 -14.734375 L 25.703125 -0.515625 C 25.898438 -0.171875 25.796875 0 25.390625 0 L 22.859375 0 C 22.460938 0 22.160156 -0.171875 21.953125 -0.515625 Z M 21.953125 -0.515625 "/></g></g></g><g fill="#03fa6e" fill-opacity="1"><g transform="translate(393.074571, 46.924015)"><g><path d="M 4.515625 -0.609375 L 4.515625 -2.671875 C 4.515625 -2.804688 4.570312 -2.9375 4.6875 -3.0625 C 4.800781 -3.195312 4.941406 -3.265625 5.109375 -3.265625 L 13.359375 -3.265625 L 13.359375 -26.21875 L 5.109375 -26.21875 C 4.710938 -26.21875 4.515625 -26.414062 4.515625 -26.8125 L 4.515625 -28.875 C 4.515625 -29.28125 4.710938 -29.484375 5.109375 -29.484375 L 24.84375 -29.484375 C 25.238281 -29.484375 25.4375 -29.28125 25.4375 -28.875 L 25.4375 -26.8125 C 25.4375 -26.414062 25.238281 -26.21875 24.84375 -26.21875 L 16.625 -26.21875 L 16.625 -3.265625 L 24.84375 -3.265625 C 25.007812 -3.265625 25.148438 -3.195312 25.265625 -3.0625 C 25.378906 -2.9375 25.4375 -2.804688 25.4375 -2.671875 L 25.4375 -0.609375 C 25.4375 -0.203125 25.238281 0 24.84375 0 L 5.109375 0 C 4.710938 0 4.515625 -0.203125 4.515625 -0.609375 Z M 4.515625 -0.609375 "/></g></g></g><g fill="#03fa6e" fill-opacity="1"><g transform="translate(423.022674, 46.924015)"><g><path d="M 22.78125 -0.609375 L 22.78125 -12.9375 L 7.171875 -25.828125 L 7.171875 -0.609375 C 7.171875 -0.203125 6.972656 0 6.578125 0 L 4.515625 0 C 4.367188 0 4.226562 -0.0546875 4.09375 -0.171875 C 3.96875 -0.285156 3.90625 -0.429688 3.90625 -0.609375 L 3.90625 -28.875 C 3.90625 -29.050781 3.96875 -29.195312 4.09375 -29.3125 C 4.226562 -29.425781 4.367188 -29.484375 4.515625 -29.484375 L 7.390625 -29.484375 C 7.796875 -29.484375 8.15625 -29.351562 8.46875 -29.09375 L 22.78125 -17.28125 L 22.78125 -28.875 C 22.78125 -29.28125 22.976562 -29.484375 23.375 -29.484375 L 25.4375 -29.484375 C 25.84375 -29.484375 26.046875 -29.28125 26.046875 -28.875 L 26.046875 -0.609375 C 26.046875 -0.203125 25.84375 0 25.4375 0 L 23.375 0 C 22.976562 0 22.78125 -0.203125 22.78125 -0.609375 Z M 22.78125 -0.609375 "/></g></g></g><g fill="#03fa6e" fill-opacity="1"><g transform="translate(452.970776, 46.924015)"><g><path d="M 3.90625 -6.28125 L 3.90625 -8.25 C 3.90625 -8.394531 3.96875 -8.53125 4.09375 -8.65625 C 4.226562 -8.789062 4.367188 -8.859375 4.515625 -8.859375 L 6.578125 -8.859375 C 6.742188 -8.859375 6.882812 -8.789062 7 -8.65625 C 7.113281 -8.53125 7.171875 -8.394531 7.171875 -8.25 L 7.171875 -6.28125 C 7.171875 -5.445312 7.460938 -4.734375 8.046875 -4.140625 C 8.640625 -3.554688 9.351562 -3.265625 10.1875 -3.265625 L 19.765625 -3.265625 C 20.597656 -3.265625 21.304688 -3.554688 21.890625 -4.140625 C 22.484375 -4.734375 22.78125 -5.445312 22.78125 -6.28125 L 22.78125 -10.09375 C 22.78125 -10.925781 22.484375 -11.632812 21.890625 -12.21875 C 21.304688 -12.8125 20.597656 -13.109375 19.765625 -13.109375 L 10.1875 -13.109375 C 9.320312 -13.109375 8.507812 -13.269531 7.75 -13.59375 C 7 -13.925781 6.335938 -14.367188 5.765625 -14.921875 C 5.191406 -15.484375 4.738281 -16.148438 4.40625 -16.921875 C 4.070312 -17.703125 3.90625 -18.519531 3.90625 -19.375 L 3.90625 -23.203125 C 3.90625 -24.066406 4.070312 -24.875 4.40625 -25.625 C 4.738281 -26.382812 5.191406 -27.050781 5.765625 -27.625 C 6.335938 -28.195312 7 -28.648438 7.75 -28.984375 C 8.507812 -29.316406 9.320312 -29.484375 10.1875 -29.484375 L 19.765625 -29.484375 C 20.628906 -29.484375 21.4375 -29.316406 22.1875 -28.984375 C 22.945312 -28.648438 23.613281 -28.195312 24.1875 -27.625 C 24.757812 -27.050781 25.210938 -26.382812 25.546875 -25.625 C 25.878906 -24.875 26.046875 -24.066406 26.046875 -23.203125 L 26.046875 -21.234375 C 26.046875 -20.828125 25.84375 -20.625 25.4375 -20.625 L 23.375 -20.625 C 22.976562 -20.625 22.78125 -20.828125 22.78125 -21.234375 L 22.78125 -23.203125 C 22.78125 -24.035156 22.484375 -24.742188 21.890625 -25.328125 C 21.304688 -25.921875 20.597656 -26.21875 19.765625 -26.21875 L 10.1875 -26.21875 C 9.351562 -26.21875 8.640625 -25.921875 8.046875 -25.328125 C 7.460938 -24.742188 7.171875 -24.035156 7.171875 -23.203125 L 7.171875 -19.375 C 7.171875 -18.550781 7.460938 -17.84375 8.046875 -17.25 C 8.640625 -16.664062 9.351562 -16.375 10.1875 -16.375 L 19.765625 -16.375 C 20.628906 -16.375 21.4375 -16.207031 22.1875 -15.875 C 22.945312 -15.550781 23.613281 -15.101562 24.1875 -14.53125 C 24.757812 -13.957031 25.210938 -13.289062 25.546875 -12.53125 C 25.878906 -11.769531 26.046875 -10.957031 26.046875 -10.09375 L 26.046875 -6.28125 C 26.046875 -5.414062 25.878906 -4.597656 25.546875 -3.828125 C 25.210938 -3.054688 24.757812 -2.390625 24.1875 -1.828125 C 23.613281 -1.265625 22.945312 -0.816406 22.1875 -0.484375 C 21.4375 -0.160156 20.628906 0 19.765625 0 L 10.1875 0 C 9.320312 0 8.507812 -0.160156 7.75 -0.484375 C 7 -0.816406 6.335938 -1.265625 5.765625 -1.828125 C 5.191406 -2.390625 4.738281 -3.054688 4.40625 -3.828125 C 4.070312 -4.597656 3.90625 -5.414062 3.90625 -6.28125 Z M 3.90625 -6.28125 "/></g></g></g><g fill="#03fa6e" fill-opacity="1"><g transform="translate(482.918879, 46.924015)"><g><path d="M 4.59375 -0.609375 L 4.59375 -28.875 C 4.59375 -29.28125 4.796875 -29.484375 5.203125 -29.484375 L 25.21875 -29.484375 C 25.625 -29.484375 25.828125 -29.28125 25.828125 -28.875 L 25.828125 -26.8125 C 25.828125 -26.414062 25.625 -26.21875 25.21875 -26.21875 L 7.828125 -26.21875 L 7.828125 -16.375 L 22.90625 -16.375 C 23.050781 -16.375 23.1875 -16.304688 23.3125 -16.171875 C 23.4375 -16.046875 23.5 -15.910156 23.5 -15.765625 L 23.5 -13.703125 C 23.5 -13.535156 23.4375 -13.394531 23.3125 -13.28125 C 23.1875 -13.164062 23.050781 -13.109375 22.90625 -13.109375 L 7.828125 -13.109375 L 7.828125 -3.265625 L 25.21875 -3.265625 C 25.394531 -3.265625 25.539062 -3.195312 25.65625 -3.0625 C 25.769531 -2.9375 25.828125 -2.804688 25.828125 -2.671875 L 25.828125 -0.609375 C 25.828125 -0.203125 25.625 0 25.21875 0 L 5.203125 0 C 4.796875 0 4.59375 -0.203125 4.59375 -0.609375 Z M 4.59375 -0.609375 "/></g></g></g><g fill="#03fa6e" fill-opacity="1"><g transform="translate(512.82401, 46.924015)"><g><path d="M 4.34375 -21.0625 C 4.226562 -21.195312 4.125 -21.359375 4.03125 -21.546875 C 3.945312 -21.734375 3.90625 -21.914062 3.90625 -22.09375 L 3.90625 -28.875 C 3.90625 -29.019531 3.96875 -29.15625 4.09375 -29.28125 C 4.226562 -29.414062 4.367188 -29.484375 4.515625 -29.484375 L 6.578125 -29.484375 C 6.742188 -29.484375 6.882812 -29.414062 7 -29.28125 C 7.113281 -29.15625 7.171875 -29.019531 7.171875 -28.875 L 7.171875 -23.375 C 7.171875 -23.226562 7.210938 -23.054688 7.296875 -22.859375 C 7.390625 -22.660156 7.492188 -22.488281 7.609375 -22.34375 L 15 -15.125 L 22.34375 -22.34375 C 22.488281 -22.488281 22.597656 -22.660156 22.671875 -22.859375 C 22.742188 -23.054688 22.78125 -23.226562 22.78125 -23.375 L 22.78125 -28.875 C 22.78125 -29.019531 22.835938 -29.15625 22.953125 -29.28125 C 23.066406 -29.414062 23.207031 -29.484375 23.375 -29.484375 L 25.4375 -29.484375 C 25.613281 -29.484375 25.757812 -29.414062 25.875 -29.28125 C 25.988281 -29.15625 26.046875 -29.019531 26.046875 -28.875 L 26.046875 -22.09375 C 26.046875 -21.914062 26 -21.734375 25.90625 -21.546875 C 25.820312 -21.359375 25.722656 -21.195312 25.609375 -21.0625 L 16.625 -12.125 L 16.625 -0.609375 C 16.625 -0.429688 16.5625 -0.285156 16.4375 -0.171875 C 16.3125 -0.0546875 16.175781 0 16.03125 0 L 13.96875 0 C 13.5625 0 13.359375 -0.203125 13.359375 -0.609375 L 13.359375 -12.125 Z M 4.34375 -21.0625 "/></g></g></g></svg>